# xmcd
#
# Track frame offsets:
#	150
#	25017
#	43468
#	62787
#	81358
#	98878
#	135371
#	148577
#	186659
#
# Disc length: 2761 seconds
#
# Revision: 1
# Processed by: cddbd v1.4PL0 Copyright (c) Steve Scherf et al.
# Submitted via: CDmax 1.9
#
DISCID=820ac709
DTITLE=Alabama - Gonna Have a Party...Live
DYEAR=1993
DGENRE=Country
TTITLE0=Gonna Have a Party
TTITLE1=Red River
TTITLE2=Roll On (Eighteen Wheeler)
TTITLE3=She and I
TTITLE4=Lady Down on Love
TTITLE5=Tennessee River
TTITLE6=Green River
TTITLE7=My Home's in Alabama
TTITLE8=Takin' Care of Business
EXTD=
EXTT0=
EXTT1=
EXTT2=
EXTT3=
EXTT4=
EXTT5=
EXTT6=
EXTT7=
EXTT8=
PLAYORDER=
